<svg width="28" height="51" viewBox="0 0 28 51" fill="none" xmlns="http://www.w3.org/2000/svg">
<path d="M0 13.9091C0 10.0455 1.36111 6.76136 4.08333 4.05682C6.80556 1.35227 10.1111 0 14 0C17.8889 0 21.1944 1.35227 23.9167 4.05682C26.6389 6.76136 28 10.0455 28 13.9091L28 37.0909C28 40.9545 26.6389 44.2386 23.9167 46.9432C21.1944 49.6477 17.8889 51 14 51C10.1111 51 6.80556 49.6477 4.08333 46.9432C1.36111 44.2386 0 40.9545 0 37.0909L0 13.9091ZM4.66667 13.9091L4.66667 37.0909C4.66667 39.6409 5.58056 41.8239 7.40833 43.6398C9.23611 45.4557 11.4333 46.3636 14 46.3636C16.5667 46.3636 18.7639 45.4557 20.5917 43.6398C22.4194 41.8239 23.3333 39.6409 23.3333 37.0909L23.3333 13.9091C23.3333 11.3591 22.4194 9.17614 20.5917 7.36023C18.7639 5.54432 16.5667 4.63636 14 4.63636C11.4333 4.63636 9.23611 5.54432 7.40833 7.36023C5.58056 9.17614 4.66667 11.3591 4.66667 13.9091ZM7 13.9091C7 15.8409 7.68056 17.483 9.04167 18.8352C10.4028 20.1875 12.0556 20.8636 14 20.8636C15.9444 20.8636 17.5972 20.1875 18.9583 18.8352C20.3194 17.483 21 15.8409 21 13.9091C21 11.9773 20.3194 10.3352 18.9583 8.98295C17.5972 7.63068 15.9444 6.95455 14 6.95455C12.0556 6.95455 10.4028 7.63068 9.04167 8.98295C7.68056 10.3352 7 11.9773 7 13.9091Z" fill="#DCCA87"/>
</svg>
