<svg width="32" height="32" viewBox="0 0 32 32" fill="none" xmlns="http://www.w3.org/2000/svg">
<path d="M24.832 16.969C24.56 16.322 24.25 15.589 23.949 14.684C23.159 12.315 25.683 9.731 25.707 9.707L24.293 8.293C24.153 8.433 20.87 11.771 22.051 15.316C22.377 16.294 22.703 17.066 22.989 17.746C23.6564 19.0646 24.0028 20.5222 24 22C23.8828 23.1912 23.4255 24.3235 22.6826 25.262C21.9396 26.2005 20.9425 26.9055 19.81 27.293C20.1678 25.8907 20.1624 24.4203 19.7945 23.0207C19.4266 21.621 18.7081 20.3381 17.707 19.293L16.663 18.249L16.081 19.606C14.245 23.89 12.06 25.76 10.775 26.54C9.98615 26.0569 9.32326 25.3934 8.84083 24.6041C8.3584 23.8149 8.07022 22.9224 8 22C8.06898 20.7412 8.38463 19.5081 8.929 18.371C9.5746 17.0002 9.93878 15.5139 10 14V12.222C10.874 12.582 12 13.525 12 16V18.603L13.743 16.669C16.855 13.215 16.206 9.102 14.949 6.361C15.9045 6.6795 16.725 7.31027 17.2784 8.15176C17.8319 8.99325 18.086 9.99651 18 11H20C20 5.463 15.421 4 13 4H11L12.2 5.599C12.337 5.784 15.062 9.526 13.553 13.287C13.2172 12.3419 12.6018 11.5213 11.7886 10.9342C10.9754 10.3471 10.0028 10.0213 9 10H8V14C7.93102 15.2588 7.61537 16.4919 7.071 17.629C6.4254 18.9998 6.06122 20.4861 6 22C6 25.848 9.823 30 16 30C22.177 30 26 25.848 26 22C26.0015 20.2556 25.6019 18.5343 24.832 16.969ZM12.835 27.526C14.6797 25.999 16.1698 24.0888 17.202 21.928C17.7531 22.8178 18.0661 23.8343 18.1111 24.8799C18.1561 25.9255 17.9316 26.9652 17.459 27.899C16.9754 27.9641 16.488 27.9978 16 28C14.9268 28.0074 13.859 27.8475 12.835 27.526Z" fill="#DCCA87"/>
</svg>
