<svg width="44" height="44" viewBox="0 0 44 44" fill="none" xmlns="http://www.w3.org/2000/svg">
<path d="M38.9392 22.8238C38.9224 22.4087 38.8238 21.997 38.6492 21.6125C38.4745 21.2279 38.2272 20.8779 37.9213 20.5825C37.6155 20.2871 37.2571 20.0521 36.8667 19.891C36.4764 19.7299 36.0616 19.6458 35.6463 19.6436L5.41006 19.732C5.2803 19.7326 5.15461 19.7674 5.04557 19.8327C4.93653 19.898 4.84796 19.9916 4.78873 20.1041C4.73117 20.2182 4.70661 20.3472 4.7177 20.4774C4.72878 20.6076 4.7751 20.734 4.85166 20.843C5.63745 22.0467 6.55701 23.1613 7.59166 24.1642C10.5461 27.0323 14.3928 28.9813 18.9037 29.889C23.4146 30.7967 27.0818 30.3232 27.2358 30.3074C27.4096 30.2876 27.5666 30.2031 27.6759 30.0707C27.7852 29.9382 27.839 29.7673 27.8267 29.5916L27.7015 26.1308L35.9161 25.9558C36.7508 25.9563 37.5364 25.6277 38.1023 25.0414C38.6683 24.455 38.969 23.6582 38.9392 22.8238V22.8238ZM26.3487 28.9172C23.9305 29.0794 21.4861 28.9188 19.0796 28.4398C13.8244 27.388 9.72669 24.9474 6.84085 21.1871L26.0473 21.1196L26.212 25.3791L26.2146 25.4478L26.2235 25.4565L26.3487 28.9172ZM35.8425 24.4957L35.8335 24.487L27.645 24.6709L27.5076 21.1156L35.711 21.095C36.1623 21.099 36.602 21.2821 36.9334 21.6038C37.2649 21.9256 37.4609 22.3597 37.4783 22.8106C37.4957 23.2616 37.3332 23.6925 37.0264 24.0085C36.7196 24.3245 36.2937 24.4998 35.8425 24.4957V24.4957Z" fill="#DCCA87"/>
</svg>
