<svg width="28" height="51" viewBox="0 0 28 51" fill="none" xmlns="http://www.w3.org/2000/svg">
<path d="M28 37.0909C28 40.9545 26.6389 44.2386 23.9167 46.9432C21.1944 49.6477 17.8889 51 14 51C10.1111 51 6.80556 49.6477 4.08333 46.9432C1.36111 44.2386 0 40.9545 0 37.0909L0 13.9091C0 10.0455 1.36111 6.76136 4.08333 4.05682C6.80556 1.35228 10.1111 0 14 0C17.8889 0 21.1944 1.35228 23.9167 4.05682C26.6389 6.76136 28 10.0455 28 13.9091L28 37.0909ZM23.3333 37.0909L23.3333 13.9091C23.3333 11.3591 22.4194 9.17614 20.5917 7.36023C18.7639 5.54432 16.5667 4.63636 14 4.63636C11.4333 4.63636 9.23611 5.54432 7.40833 7.36023C5.58056 9.17614 4.66667 11.3591 4.66667 13.9091L4.66667 37.0909C4.66667 39.6409 5.58056 41.8239 7.40833 43.6398C9.23611 45.4557 11.4333 46.3636 14 46.3636C16.5667 46.3636 18.7639 45.4557 20.5917 43.6398C22.4194 41.8239 23.3333 39.6409 23.3333 37.0909ZM21 37.0909C21 35.1591 20.3194 33.517 18.9583 32.1648C17.5972 30.8125 15.9444 30.1364 14 30.1364C12.0556 30.1364 10.4028 30.8125 9.04167 32.1648C7.68056 33.517 7 35.1591 7 37.0909C7 39.0227 7.68056 40.6648 9.04167 42.017C10.4028 43.3693 12.0556 44.0455 14 44.0455C15.9444 44.0455 17.5972 43.3693 18.9583 42.017C20.3194 40.6648 21 39.0227 21 37.0909Z" fill="#C4C4C4"/>
</svg>
